<svg xmlns="http://www.w3.org/2000/svg" width="360" height="112" viewBox="0 0 360 112">
  <g id="Group_4383" data-name="Group 4383" transform="translate(24555 19327)">
    <g id="Layer_1" transform="translate(-24564 -19333)">
      <path id="Path_7740" data-name="Path 7740" d="M60.282,110.758a42.98,42.98,0,0,1-1.194-16.482,43.326,43.326,0,0,1,86.34,5.2,42.988,42.988,0,0,1-1.512,11.292,1.218,1.218,0,0,0,1.17,1.554h48.108a1.229,1.229,0,0,0,1.218-1.062,90.885,90.885,0,0,0,.792-11.784A93.1,93.1,0,1,0,9,99.466a90.885,90.885,0,0,0,.792,11.784,1.229,1.229,0,0,0,1.218,1.062H59.118A1.217,1.217,0,0,0,60.282,110.758Z" fill="#ff9500"/>
      <path id="Path_7741" data-name="Path 7741" d="M377.424,50.426h-2.8l-2.7-6.084H359.4l-2.73,6.084H354l10.494-23.2h2.436ZM365.682,30.26,360.42,42h10.494Z" transform="translate(-138 -8.344)" fill="#fff"/>
      <path id="Path_7742" data-name="Path 7742" d="M419.376,36.94c3.912,0,6.318,2.634,6.318,6.84V54.31h-2.532V44.374c0-3.288-1.644-5.13-4.41-5.13-2.568,0-4.7,1.908-4.7,5.262v9.8h-2.5v-10c0-3.192-1.68-5.064-4.374-5.064s-4.74,2.238-4.74,5.364v9.708H399.9V37.306h2.532v2.862a6.208,6.208,0,0,1,5.5-3.222,5.772,5.772,0,0,1,5.46,3.39A6.784,6.784,0,0,1,419.376,36.94Z" transform="translate(-156.36 -12.228)" fill="#fff"/>
      <path id="Path_7743" data-name="Path 7743" d="M458.856,52.512a7.056,7.056,0,0,0,5.364-2.4l1.578,1.416a8.784,8.784,0,0,1-7.008,3.192c-4.674,0-8.49-3.588-8.49-8.88,0-4.932,3.456-8.88,8.16-8.88,5.034,0,7.926,4.014,7.926,9.012a7.644,7.644,0,0,1-.03.792H452.868A5.96,5.96,0,0,0,458.856,52.512Zm4.968-7.632c-.264-3.09-2.04-5.79-5.43-5.79-2.958,0-5.2,2.466-5.526,5.79Z" transform="translate(-176.52 -12.236)" fill="#fff"/>
      <path id="Path_7744" data-name="Path 7744" d="M487.052,54.35H484.52v-17h2.532v4.44c1.248-2.826,3.72-4.866,6.942-4.74v2.73h-.2c-3.72,0-6.744,2.664-6.744,7.794Z" transform="translate(-190.208 -12.268)" fill="#fff"/>
      <path id="Path_7745" data-name="Path 7745" d="M506.84,28.088h0a1.4,1.4,0,0,1,1.4-1.4h.1a1.4,1.4,0,0,1,1.4,1.4h0a1.4,1.4,0,0,1-1.4,1.4h-.1A1.4,1.4,0,0,1,506.84,28.088ZM507,50.21v-17h2.532v17.01H507Z" transform="translate(-199.136 -8.128)" fill="#fff"/>
      <path id="Path_7746" data-name="Path 7746" d="M528.118,54.706a8.884,8.884,0,1,1,6.81-14.742l-1.68,1.776a6.867,6.867,0,0,0-5.166-2.568c-3.456,0-6.084,2.928-6.084,6.612a6.366,6.366,0,0,0,6.252,6.648,7.019,7.019,0,0,0,5.2-2.532l1.614,1.512A8.747,8.747,0,0,1,528.118,54.706Z" transform="translate(-204.16 -12.228)" fill="#fff"/>
      <path id="Path_7747" data-name="Path 7747" d="M552.6,40.646l-.756-2.07a14.028,14.028,0,0,1,6.186-1.416c4.638,0,7.236,2.37,7.236,6.846V54.4h-2.436V51.836a7.441,7.441,0,0,1-6.15,2.928c-3.156,0-6.348-1.776-6.348-5.328,0-3.618,2.958-5.526,7.272-5.526a17.9,17.9,0,0,1,5.232.726v-.594c0-3.06-1.878-4.638-5.064-4.638A11.805,11.805,0,0,0,552.6,40.646Zm.294,8.688c0,2.172,1.974,3.42,4.278,3.42,3.126,0,5.694-1.908,5.694-4.608V46.5a17.784,17.784,0,0,0-5-.726C554.668,45.782,552.892,47.162,552.892,49.334Z" transform="translate(-216.532 -12.316)" fill="#fff"/>
      <path id="Path_7748" data-name="Path 7748" d="M586.752,54.31H584.22v-17h2.532v2.958a6.441,6.441,0,0,1,5.82-3.324c4.11,0,6.516,2.766,6.516,6.81V54.31h-2.532V44.374c0-3.156-1.71-5.13-4.7-5.13a5,5,0,0,0-5.1,5.328Z" transform="translate(-230.088 -12.228)" fill="#fff"/>
      <path id="Path_7749" data-name="Path 7749" d="M398.744,113.936a8.718,8.718,0,0,1-8.814-8.85,8.865,8.865,0,1,1,8.814,8.85Zm0-15.528c-3.684,0-6.216,2.928-6.216,6.612a6.393,6.393,0,0,0,6.282,6.648,6.268,6.268,0,0,0,6.252-6.582A6.427,6.427,0,0,0,398.744,98.408Z" transform="translate(-152.372 -35.92)" fill="#fff"/>
      <path id="Path_7750" data-name="Path 7750" d="M434.068,113.936a8.884,8.884,0,1,1,6.81-14.742l-1.68,1.776a6.866,6.866,0,0,0-5.166-2.568c-3.456,0-6.084,2.928-6.084,6.612a6.366,6.366,0,0,0,6.252,6.648,7.019,7.019,0,0,0,5.2-2.532l1.614,1.512A8.748,8.748,0,0,1,434.068,113.936Z" transform="translate(-166.54 -35.92)" fill="#fff"/>
      <path id="Path_7751" data-name="Path 7751" d="M458.53,87.318h0a1.4,1.4,0,0,1,1.4-1.4h.1a1.4,1.4,0,0,1,1.4,1.4h0a1.4,1.4,0,0,1-1.4,1.4h-.1A1.4,1.4,0,0,1,458.53,87.318Zm.162,22.122v-17h2.532v17.01h-2.532Z" transform="translate(-179.812 -31.82)" fill="#fff"/>
      <path id="Path_7752" data-name="Path 7752" d="M479.636,111.742a7.056,7.056,0,0,0,5.364-2.4l1.578,1.416a8.784,8.784,0,0,1-7.008,3.192c-4.674,0-8.49-3.588-8.49-8.88,0-4.932,3.456-8.88,8.16-8.88,5.034,0,7.926,4.014,7.926,9.012a7.66,7.66,0,0,1-.03.792H473.648A5.96,5.96,0,0,0,479.636,111.742Zm4.968-7.632c-.264-3.09-2.04-5.79-5.43-5.79-2.958,0-5.2,2.466-5.526,5.79Z" transform="translate(-184.832 -35.928)" fill="#fff"/>
      <path id="Path_7753" data-name="Path 7753" d="M507.738,105.53c0,2.07,1.152,2.826,2.862,2.826a5.263,5.263,0,0,0,2.466-.594v2.172a6.354,6.354,0,0,1-3.06.726c-2.73,0-4.806-1.35-4.806-4.806V95.588h-2.37V93.35h2.37V88.22h2.532v5.13h5.4v2.238h-5.394Z" transform="translate(-197.532 -32.74)" fill="#fff"/>
      <path id="Path_7754" data-name="Path 7754" d="M534.616,114.348c-1.446,3.522-3.09,4.806-5.658,4.806a7.669,7.669,0,0,1-3.618-.858l.858-2a5.333,5.333,0,0,0,2.664.624c1.512,0,2.466-.792,3.486-3.192L524.62,96.78h2.8l6.186,14.178,5.46-14.178h2.7Z" transform="translate(-206.248 -36.164)" fill="#fff"/>
      <path id="Path_7755" data-name="Path 7755" d="M353.46,161.8v-.066c0-5.064,4.146-9.312,9.87-9.312,5.694,0,9.8,4.176,9.8,9.246v.066c0,5.07-4.146,9.312-9.87,9.312C357.57,171.044,353.46,166.868,353.46,161.8Zm13.584,0v-.066a3.858,3.858,0,0,0-3.786-4.014,3.732,3.732,0,0,0-3.72,3.948v.066a3.858,3.858,0,0,0,3.786,4.014A3.725,3.725,0,0,0,367.044,161.8Z" transform="translate(-137.784 -58.42)" fill="#ff9500"/>
      <path id="Path_7756" data-name="Path 7756" d="M390.636,152.826h6.252v2.5a6.6,6.6,0,0,1,5.328-2.9c3.786,0,6.054,2.5,6.054,6.546v11.646h-6.252V160.98c0-1.938-1.02-2.994-2.5-2.994-1.512,0-2.634,1.05-2.634,2.994v9.642H390.63v-17.8Z" transform="translate(-152.652 -58.424)" fill="#ff9500"/>
      <path id="Path_7757" data-name="Path 7757" d="M443.994,144.09h6.15l9.8,23.2h-6.84l-1.68-4.11h-8.88l-1.644,4.11H434.19Zm5.592,14.118-2.568-6.546-2.6,6.546Z" transform="translate(-170.076 -55.088)" fill="#ff9500"/>
      <path id="Path_7758" data-name="Path 7758" d="M478.268,173.91l2-4.146a12.31,12.31,0,0,0,6.216,1.68c3.126,0,4.674-1.548,4.674-4.374v-.69a6.9,6.9,0,0,1-5.5,2.664c-4.374,0-7.9-3.162-7.9-8.256v-.066c0-5.13,3.588-8.292,7.7-8.292a7.146,7.146,0,0,1,5.592,2.5v-2.106h6.252v13.518c0,3.258-.726,5.526-2.3,7.1-1.614,1.614-4.11,2.5-7.83,2.5A19.012,19.012,0,0,1,478.268,173.91Zm12.894-13.128v-.066a3.406,3.406,0,0,0-3.618-3.42,3.448,3.448,0,0,0-3.654,3.456v.066a3.642,3.642,0,0,0,7.272-.036Z" transform="translate(-187.508 -58.424)" fill="#ff9500"/>
      <path id="Path_7759" data-name="Path 7759" d="M532.4,152.826h6.252v2.5a6.6,6.6,0,0,1,5.328-2.9c3.786,0,6.054,2.5,6.054,6.546v11.646h-6.252V160.98c0-1.938-1.02-2.994-2.5-2.994-1.512,0-2.634,1.05-2.634,2.994v9.642H532.4Z" transform="translate(-209.36 -58.424)" fill="#ff9500"/>
      <path id="Path_7760" data-name="Path 7760" d="M566.558,173.91l2-4.146a12.309,12.309,0,0,0,6.216,1.68c3.126,0,4.674-1.548,4.674-4.374v-.69a6.9,6.9,0,0,1-5.5,2.664c-4.374,0-7.9-3.162-7.9-8.256v-.066c0-5.13,3.588-8.292,7.7-8.292a7.147,7.147,0,0,1,5.592,2.5v-2.106H585.6v13.518c0,3.258-.726,5.526-2.3,7.1-1.614,1.614-4.11,2.5-7.83,2.5A19.011,19.011,0,0,1,566.558,173.91Zm12.894-13.128v-.066a3.406,3.406,0,0,0-3.618-3.42,3.448,3.448,0,0,0-3.654,3.456v.066a3.642,3.642,0,0,0,7.272-.036Z" transform="translate(-222.824 -58.424)" fill="#ff9500"/>
      <path id="Path_7761" data-name="Path 7761" d="M515.93,153.09h6.252v17.8H515.93Z" transform="translate(-202.772 -58.688)" fill="#ff9500"/>
      <circle id="Ellipse_49" data-name="Ellipse 49" cx="3.096" cy="3.096" r="3.096" transform="translate(313.182 86.08)" fill="#ff9500"/>
      <path id="Path_7762" data-name="Path 7762" d="M364.828,109.7c4.686,0,7.71-2.646,7.71-6.738,0-3.966-3.624-5.154-7.122-6.3-2.88-.942-5.6-1.836-5.6-4.338,0-2.232,1.9-3.726,4.734-3.726,3.12,0,5.214,1.776,5.214,4.422v.054h2.844v-.54c0-3.7-3.3-6.294-8.022-6.294-4.518,0-7.68,2.628-7.68,6.4,0,3.942,3.558,5.112,7,6.24,2.922.96,5.688,1.866,5.688,4.506,0,2.448-1.734,3.966-4.524,3.966-3.528,0-5.634-1.746-5.634-4.662v-.054H356.59v.78C356.6,107.228,359.824,109.7,364.828,109.7Z" transform="translate(-139.036 -31.948)" fill="#fff"/>
    </g>
    <rect id="Rectangle_6139" data-name="Rectangle 6139" width="360" height="112" transform="translate(-24555 -19327)" fill="none"/>
  </g>
</svg>
